<svg width="512" height="512" viewBox="0 0 512 512" xmlns="http://www.w3.org/2000/svg">
  <defs>
    <linearGradient id="mainGradient" x1="0%" y1="0%" x2="100%" y2="100%">
      <stop offset="0%" style="stop-color:#7c3aed;stop-opacity:1" />
      <stop offset="50%" style="stop-color:#00d4ff;stop-opacity:1" />
      <stop offset="100%" style="stop-color:#a855f7;stop-opacity:1" />
    </linearGradient>
    <linearGradient id="accentGradient" x1="0%" y1="0%" x2="100%" y2="0%">
      <stop offset="0%" style="stop-color:#00d4ff;stop-opacity:0.8" />
      <stop offset="100%" style="stop-color:#7c3aed;stop-opacity:0.8" />
    </linearGradient>
  </defs>

  <!-- Фон -->
  <rect width="512" height="512" fill="#1a1a2e" rx="120"/>

  <!-- Основная буква D с tech-стилем -->
  <path d="M 160 140 L 240 140 Q 380 140 380 256 Q 380 372 240 372 L 160 372 Z M 210 190 L 210 322 L 240 322 Q 330 322 330 256 Q 330 190 240 190 Z" 
        fill="url(#mainGradient)" 
        opacity="0.95"/>

  <!-- Декоративные элементы в стиле AI -->
  <circle cx="420" cy="92" r="8" fill="url(#accentGradient)" opacity="0.7"/>
  <circle cx="450" cy="120" r="6" fill="url(#accentGradient)" opacity="0.5"/>
  <circle cx="92" cy="420" r="8" fill="url(#accentGradient)" opacity="0.7"/>
  <circle cx="120" cy="450" r="6" fill="url(#accentGradient)" opacity="0.5"/>

  <!-- Тонкие линии сетки (tech-эффект) -->
  <line x1="90" y1="90" x2="130" y2="90" stroke="url(#accentGradient)" stroke-width="2" opacity="0.4"/>
  <line x1="90" y1="90" x2="90" y2="130" stroke="url(#accentGradient)" stroke-width="2" opacity="0.4"/>

  <line x1="422" y1="382" x2="422" y2="422" stroke="url(#accentGradient)" stroke-width="2" opacity="0.4"/>
  <line x1="382" y1="422" x2="422" y2="422" stroke="url(#accentGradient)" stroke-width="2" opacity="0.4"/>

  <!-- Точка акцента (как в Python) -->
  <circle cx="390" cy="340" r="12" fill="#00d4ff" opacity="0.8">
    <animate attributeName="opacity" values="0.5;1;0.5" dur="2s" repeatCount="indefinite"/>
  </circle>
</svg>